<?xml version="1.0" encoding="utf-8"?>
<!-- Generator: Adobe Illustrator 25.0.1, SVG Export Plug-In . SVG Version: 6.00 Build 0)  -->
<svg version="1.1" id="Слой_1" xmlns="http://www.w3.org/2000/svg" xmlns:xlink="http://www.w3.org/1999/xlink" x="0px" y="0px"
	  xml:space="preserve">
<g transform="translate(0.000000,1216.000000) scale(0.100000,-0.100000)">
	<path fill="#F6FF2E" d="M327.4420471,12067.7666016c-19.3235779-43.9433594-42.8377991-97.4326172-52.2667847-118.9101562
		c-9.3707581-21.4189453-17.1700439-39.0546875-17.286438-39.1708984s-17.9266815-1.4550781-39.694809-3.0263672
		c-21.7099152-1.5712891-61.3465118-4.4238281-88.0619354-6.34375c-26.715416-1.9794922-63.2672348-4.5986328-81.193924-5.8789062
		s-34.0490646-2.5029297-35.7951698-2.6777344L10,11891.4101562l2.8519726-2.7353516
		c1.6296988-1.4550781,19.5563869-17.4619141,39.8112106-35.5625
		c20.3130341-18.1015625,46.9120407-41.7900391,59.1347885-52.6748047
		c73.743866-65.7695312,90.7975006-80.9609375,91.4959412-81.484375
		c0.9894562-0.7568359,4.3070679,13.2705078-31.5463104-131.8310547
		c-14.9001007-60.2988281-27.0064392-109.8300781-26.9482269-110.0048828
		c0.116394-0.2324219,50.5788574,29.0439453,112.2164001,65.0136719
		c61.5793152,35.9697266,112.3909912,65.3037109,112.9148254,65.1875
		c0.4656372-0.1162109,23.1650085-14.0849609,50.3460693-30.9638672
		c27.2392578-16.9375,67.8070984-42.1396484,90.2154541-56.0498047
		c22.4083862-13.9111328,47.203064-29.3349609,55.1187744-34.2246094
		c7.8574219-4.9472656,14.4926758-8.9628906,14.7254639-8.9628906s0.2327881,0.9892578,0,2.2119141
		c-0.3492432,1.9785156-23.9216309,110.4121094-45.1659546,207.6699219
		c-5.0636597,23.3974609-9.2543335,42.9541016-9.2543335,43.4785156c0,0.7558594,37.7741089,32.7685547,174.4359741,147.953125
		c15.0164795,12.6298828,15.1911011,12.8046875,13.3867798,13.2119141
		c-1.0476685,0.2333984-58.84375,6.0537109-128.4551392,12.9794922
		c-69.6114502,6.9267578-127.1165161,12.8046875-127.8149719,13.0957031
		c-0.8730469,0.3496094-3.6086121,6.4609375-11.582489,25.9589844
		c-5.703949,14.0849609-23.9798584,58.9599609-40.5678711,99.7607422s-32.8267822,80.7861328-36.0861816,88.7607422
		c-3.2593994,8.0322266-6.0531616,14.7255859-6.2859802,15.0166016
		C362.7715759,12147.4472656,346.765625,12111.7099609,327.4420471,12067.7666016z"/>
</g>
<g transform="translate(0.000000,1216.000000) scale(0.100000,-0.100000)">
	<path fill="#F6FF2E" d="M1042.5428467,12067.9414062c-19.3236084-43.9443359-42.8378296-97.4326172-52.2668457-118.9101562
		c-9.3707275-21.4189453-17.1699829-39.0546875-17.286438-39.1708984
		c-0.116394-0.1162109-17.9266357-1.4550781-39.6947632-3.0263672c-21.7099609-1.5712891-61.3465576-4.4238281-88.0619507-6.3447266
		c-26.7154541-1.9785156-63.2672729-4.5976562-81.1939087-5.8779297
		c-17.9266968-1.2802734-34.0490723-2.5029297-35.795166-2.6777344l-3.1430054-0.3486328l2.8519897-2.7363281
		c1.6296997-1.4550781,19.5563354-17.4609375,39.8111572-35.5625
		c20.3130493-18.1005859,46.9120483-41.7900391,59.1348267-52.6738281
		c73.7438354-65.7695312,90.7974854-80.9609375,91.4959106-81.484375
		c0.989502-0.7568359,4.3070679,13.2695312-31.5462646-131.8310547
		c-14.9001465-60.2988281-27.0064697-109.8300781-26.9482422-110.0048828
		c0.116394-0.2333984,50.5788574,29.0429688,112.2163696,65.0126953
		c61.5794067,35.9707031,112.3910522,65.3046875,112.914856,65.1884766
		c0.4655762-0.1162109,23.1650391-14.0849609,50.3460693-30.9638672
		c27.2392578-16.9375,67.8071289-42.1396484,90.2154541-56.0507812
		c22.4083252-13.9101562,47.2030029-29.3339844,55.1187744-34.2236328
		c7.8574219-4.9472656,14.4926758-8.9628906,14.7254639-8.9628906s0.2327881,0.9892578,0,2.2119141
		c-0.3492432,1.9785156-23.9216309,110.4121094-45.1658936,207.6699219
		c-5.0637207,23.3974609-9.2543945,42.9541016-9.2543945,43.4775391c0,0.7568359,37.7740479,32.7685547,174.4359131,147.9541016
		c15.0166016,12.6298828,15.1911621,12.8046875,13.3868408,13.2119141
		c-1.0476074,0.2324219-58.84375,6.0527344-128.4552002,12.9794922
		c-69.6114502,6.9257812-127.1164551,12.8046875-127.8149414,13.0957031
		c-0.8730469,0.3496094-3.6086426,6.4609375-11.5825195,25.9589844
		c-5.7038574,14.0849609-23.9798584,58.9599609-40.5678711,99.7607422s-32.8267822,80.7861328-36.0861816,88.7597656
		c-3.2593994,8.0322266-6.0531006,14.7255859-6.2858887,15.0166016
		C1077.8723145,12147.6220703,1061.866333,12111.8847656,1042.5428467,12067.9414062z"/>
</g>
<g transform="translate(0.000000,1216.000000) scale(0.100000,-0.100000)">
	<path fill="#F6FF2E" d="M1762.5428467,12067.9414062c-19.3236084-43.9443359-42.8378906-97.4326172-52.2668457-118.9101562
		c-9.3707275-21.4189453-17.1700439-39.0546875-17.286377-39.1708984
		c-0.1164551-0.1162109-17.9267578-1.4550781-39.6948242-3.0263672
		c-21.7099609-1.5712891-61.3465576-4.4238281-88.0620117-6.3447266
		c-26.715332-1.9785156-63.2672119-4.5976562-81.1938477-5.8779297c-17.9267578-1.2802734-34.0490723-2.5029297-35.795166-2.6777344
		l-3.1430664-0.3486328l2.8520508-2.7363281c1.6296387-1.4550781,19.5563965-17.4609375,39.8111572-35.5625
		c20.3131104-18.1005859,46.9121094-41.7900391,59.1347656-52.6738281
		c73.7438965-65.7695312,90.7976074-80.9609375,91.4959717-81.484375
		c0.989502-0.7568359,4.3071289,13.2695312-31.5462646-131.8310547
		c-14.9001465-60.2988281-27.0064697-109.8300781-26.9482422-110.0048828
		c0.116333-0.2333984,50.5788574,29.0429688,112.2164307,65.0126953
		c61.5793457,35.9707031,112.3909912,65.3046875,112.9147949,65.1884766
		c0.4655762-0.1162109,23.1650391-14.0849609,50.3460693-30.9638672
		c27.2392578-16.9375,67.8071289-42.1396484,90.2154541-56.0507812
		c22.4083252-13.9101562,47.2030029-29.3339844,55.1187744-34.2236328
		c7.8574219-4.9472656,14.4926758-8.9628906,14.7254639-8.9628906s0.2327881,0.9892578,0,2.2119141
		c-0.3492432,1.9785156-23.9216309,110.4121094-45.1658936,207.6699219
		c-5.0637207,23.3974609-9.2543945,42.9541016-9.2543945,43.4775391c0,0.7568359,37.7740479,32.7685547,174.4360352,147.9541016
		c15.0163574,12.6298828,15.1911621,12.8046875,13.3867188,13.2119141
		c-1.0476074,0.2324219-58.84375,6.0527344-128.4552002,12.9794922
		c-69.6114502,6.9257812-127.1164551,12.8046875-127.8149414,13.0957031
		c-0.8730469,0.3496094-3.6086426,6.4609375-11.5825195,25.9589844
		c-5.7038574,14.0849609-23.9798584,58.9599609-40.5678711,99.7607422s-32.8267822,80.7861328-36.0861816,88.7597656
		c-3.2593994,8.0322266-6.0531006,14.7255859-6.2858887,15.0166016
		C1797.8723145,12147.6220703,1781.866333,12111.8847656,1762.5428467,12067.9414062z"/>
</g>
<g transform="translate(0.000000,1216.000000) scale(0.100000,-0.100000)">
	<path fill="#F6FF2E" d="M2474.6704102,12067.9414062c-19.3234863-43.9443359-42.8376465-97.4326172-52.2666016-118.9101562
		c-9.3708496-21.4189453-17.170166-39.0546875-17.2866211-39.1708984s-17.9265137-1.4550781-39.6948242-3.0263672
		c-21.7099609-1.5712891-61.3464355-4.4238281-88.0617676-6.3447266
		c-26.7155762-1.9785156-63.267334-4.5976562-81.1940918-5.8779297c-17.9265137-1.2802734-34.0490723-2.5029297-35.795166-2.6777344
		l-3.1428223-0.3486328l2.8518066-2.7363281c1.6298828-1.4550781,19.5563965-17.4609375,39.8112793-35.5625
		c20.3129883-18.1005859,46.9121094-41.7900391,59.1347656-52.6738281
		c73.7438965-65.7695312,90.7976074-80.9609375,91.4958496-81.484375
		c0.989502-0.7568359,4.3071289,13.2695312-31.5461426-131.8310547
		c-14.9001465-60.2988281-27.0065918-109.8300781-26.9482422-110.0048828
		c0.1164551-0.2333984,50.5788574,29.0429688,112.2163086,65.0126953
		c61.5793457,35.9707031,112.3911133,65.3046875,112.9147949,65.1884766
		c0.4658203-0.1162109,23.1650391-14.0849609,50.3461914-30.9638672c27.2392578-16.9375,67.8071289-42.1396484,90.215332-56.0507812
		c22.4084473-13.9101562,47.203125-29.3339844,55.1188965-34.2236328
		c7.8574219-4.9472656,14.4926758-8.9628906,14.7253418-8.9628906c0.2329102,0,0.2329102,0.9892578,0,2.2119141
		c-0.3491211,1.9785156-23.9216309,110.4121094-45.1657715,207.6699219
		c-5.0637207,23.3974609-9.2543945,42.9541016-9.2543945,43.4775391c0,0.7568359,37.7739258,32.7685547,174.4360352,147.9541016
		c15.0163574,12.6298828,15.190918,12.8046875,13.3867188,13.2119141
		c-1.0476074,0.2324219-58.84375,6.0527344-128.4550781,12.9794922
		c-69.6115723,6.9257812-127.1166992,12.8046875-127.8151855,13.0957031
		c-0.8730469,0.3496094-3.6083984,6.4609375-11.5822754,25.9589844
		c-5.7041016,14.0849609-23.9799805,58.9599609-40.5678711,99.7607422
		c-16.5881348,40.8007812-32.8269043,80.7861328-36.0861816,88.7597656
		c-3.2595215,8.0322266-6.0532227,14.7255859-6.2861328,15.0166016
		C2510,12147.6220703,2493.9941406,12111.8847656,2474.6704102,12067.9414062z"/>
</g>
<g transform="translate(0.000000,1216.000000) scale(0.100000,-0.100000)">
	<path fill="#F6FF2E" d="M3184.6704102,12067.9414062c-19.3234863-43.9443359-42.8376465-97.4326172-52.2666016-118.9101562
		c-9.3708496-21.4189453-17.170166-39.0546875-17.2866211-39.1708984s-17.9265137-1.4550781-39.6948242-3.0263672
		c-21.7099609-1.5712891-61.3464355-4.4238281-88.0617676-6.3447266
		c-26.7155762-1.9785156-63.267334-4.5976562-81.1940918-5.8779297c-17.9265137-1.2802734-34.0490723-2.5029297-35.795166-2.6777344
		l-3.1428223-0.3486328l2.8518066-2.7363281c1.6298828-1.4550781,19.5563965-17.4609375,39.8112793-35.5625
		c20.3129883-18.1005859,46.9121094-41.7900391,59.1347656-52.6738281
		c73.7438965-65.7695312,90.7976074-80.9609375,91.4958496-81.484375
		c0.989502-0.7568359,4.3071289,13.2695312-31.5461426-131.8310547
		c-14.9001465-60.2988281-27.0065918-109.8300781-26.9482422-110.0048828
		c0.1164551-0.2333984,50.5788574,29.0429688,112.2163086,65.0126953
		c61.5793457,35.9707031,112.3911133,65.3046875,112.9147949,65.1884766
		c0.4658203-0.1162109,23.1650391-14.0849609,50.3461914-30.9638672c27.2392578-16.9375,67.8071289-42.1396484,90.215332-56.0507812
		c22.4084473-13.9101562,47.203125-29.3339844,55.1188965-34.2236328
		c7.8574219-4.9472656,14.4926758-8.9628906,14.7253418-8.9628906c0.2329102,0,0.2329102,0.9892578,0,2.2119141
		c-0.3491211,1.9785156-23.9216309,110.4121094-45.1657715,207.6699219
		c-5.0637207,23.3974609-9.2543945,42.9541016-9.2543945,43.4775391c0,0.7568359,37.7739258,32.7685547,174.4360352,147.9541016
		c15.0163574,12.6298828,15.190918,12.8046875,13.3867188,13.2119141
		c-1.0476074,0.2324219-58.84375,6.0527344-128.4550781,12.9794922
		c-69.6115723,6.9257812-127.1166992,12.8046875-127.8151855,13.0957031
		c-0.8730469,0.3496094-3.6083984,6.4609375-11.5822754,25.9589844
		c-5.7041016,14.0849609-23.9799805,58.9599609-40.5678711,99.7607422
		c-16.5881348,40.8007812-32.8269043,80.7861328-36.0861816,88.7597656
		c-3.2595215,8.0322266-6.0532227,14.7255859-6.2861328,15.0166016
		C3220,12147.6220703,3203.9941406,12111.8847656,3184.6704102,12067.9414062z"/>
</g>
</svg>
