<?xml version="1.0" standalone="no"?>
<!DOCTYPE svg PUBLIC "-//W3C//DTD SVG 20010904//EN"
 "http://www.w3.org/TR/2001/REC-SVG-20010904/DTD/svg10.dtd">
<svg version="1.0" xmlns="http://www.w3.org/2000/svg"
 width="1280.000000pt" height="1218.000000pt" viewBox="0 0 1280.000000 1218.000000"
 preserveAspectRatio="xMidYMid meet">
<metadata>
Created by potrace 1.15, written by Peter Selinger 2001-2017
</metadata>
<g transform="translate(0.000000,1218.000000) scale(0.100000,-0.100000)"
fill="#000000" stroke="none">
<path d="M6368 12168 c-9 -7 -46 -107 -83 -223 -68 -214 -115 -361 -187 -585
-22 -69 -52 -165 -68 -215 -16 -49 -46 -146 -68 -215 -73 -228 -123 -383 -192
-600 -64 -200 -87 -272 -192 -600 -22 -69 -70 -222 -108 -340 -38 -118 -87
-272 -109 -342 -23 -71 -59 -185 -82 -255 -22 -71 -71 -225 -109 -343 -69
-218 -117 -367 -191 -597 -22 -71 -53 -168 -69 -218 l-28 -90 -188 0 c-104 0
-1196 4 -2427 8 -1745 7 -2241 6 -2252 -3 -20 -17 -19 -54 2 -73 10 -8 455
-329 988 -712 534 -383 1412 -1014 1953 -1403 540 -388 982 -710 982 -715 0
-6 -65 -207 -144 -446 -79 -240 -275 -834 -436 -1321 -160 -487 -309 -937
-330 -1000 -409 -1229 -601 -1825 -596 -1846 7 -25 45 -41 68 -28 12 7 1342
984 3152 2314 407 299 745 543 750 543 6 0 884 -640 1951 -1423 1403 -1030
1949 -1425 1972 -1428 24 -3 34 1 43 17 12 24 20 -1 -381 1211 -121 366 -319
962 -439 1325 -120 363 -325 981 -455 1374 -197 592 -234 716 -223 726 7 7
263 193 568 412 2041 1467 3281 2360 3318 2390 46 38 52 61 23 87 -18 16 -121
17 -1782 7 -970 -6 -2061 -12 -2423 -13 l-660 -3 -248 775 c-136 426 -254 795
-262 820 -19 60 -91 285 -514 1610 -198 619 -379 1186 -403 1260 -23 74 -49
143 -57 153 -18 20 -42 22 -64 5z"/>
</g>
</svg>
