<?xml version="1.0" encoding="iso-8859-1"?>
<!-- Generator: Adobe Illustrator 18.1.1, SVG Export Plug-In . SVG Version: 6.00 Build 0)  -->
<svg version="1.1" id="Capa_1" xmlns="http://www.w3.org/2000/svg" xmlns:xlink="http://www.w3.org/1999/xlink" x="0px" y="0px"
	 viewBox="0 0 304.485 304.485" style="enable-background:new 0 0 304.485 304.485;" xml:space="preserve">
<g>
	<path style="fill:#010002;" d="M242.644,297.327c-1.229,0-2.458-0.376-3.508-1.14l-86.89-63.135l-86.896,63.13
		c-2.094,1.527-4.923,1.527-7.017,0c-2.094-1.516-2.966-4.207-2.166-6.665l33.188-102.159l-86.896-63.13
		c-2.094-1.522-2.966-4.213-2.166-6.671s3.091-4.123,5.674-4.123h107.404l33.194-102.153c0.8-2.458,3.091-4.123,5.674-4.123
		c2.584,0,4.875,1.665,5.674,4.123l33.194,102.153h107.41c2.59,0,4.875,1.665,5.674,4.123s-0.078,5.149-2.166,6.671l-86.896,63.129
		l33.194,102.159c0.8,2.452-0.078,5.149-2.166,6.665C245.108,296.945,243.873,297.327,242.644,297.327z"/>
</g>
<g>
</g>
<g>
</g>
<g>
</g>
<g>
</g>
<g>
</g>
<g>
</g>
<g>
</g>
<g>
</g>
<g>
</g>
<g>
</g>
<g>
</g>
<g>
</g>
<g>
</g>
<g>
</g>
<g>
</g>
</svg>
